<?xml version="1.0" encoding="UTF-8" standalone="no"?>
<svg
   xmlns:dc="http://purl.org/dc/elements/1.1/"
   xmlns:cc="http://creativecommons.org/ns#"
   xmlns:rdf="http://www.w3.org/1999/02/22-rdf-syntax-ns#"
   xmlns:svg="http://www.w3.org/2000/svg"
   xmlns="http://www.w3.org/2000/svg"
   xmlns:sodipodi="http://sodipodi.sourceforge.net/DTD/sodipodi-0.dtd"
   xmlns:inkscape="http://www.inkscape.org/namespaces/inkscape"
   inkscape:version="1.1-dev (ddb55ca, 2020-02-02)"
   sodipodi:docname="logo_arc.svg"
   viewBox="0 0 253.22932 160.19333"
   height="160.19333"
   width="253.22932"
   xml:space="preserve"
   id="svg10"
   version="1.1"><metadata
     id="metadata16"><rdf:RDF><cc:Work
         rdf:about=""><dc:format>image/svg+xml</dc:format><dc:type
           rdf:resource="http://purl.org/dc/dcmitype/StillImage" /><dc:title></dc:title></cc:Work></rdf:RDF></metadata><defs
     id="defs14" /><sodipodi:namedview
     inkscape:current-layer="g18"
     inkscape:window-maximized="0"
     inkscape:window-y="25"
     inkscape:window-x="0"
     inkscape:cy="80.096664"
     inkscape:cx="126.61466"
     inkscape:zoom="3.7278463"
     showgrid="false"
     id="namedview12"
     inkscape:window-height="1027"
     inkscape:window-width="1920"
     inkscape:pageshadow="2"
     inkscape:pageopacity="0"
     guidetolerance="10"
     gridtolerance="10"
     objecttolerance="10"
     borderopacity="1"
     bordercolor="#666666"
     pagecolor="#ffffff" /><g
     transform="matrix(1.3333333,0,0,-1.3333333,0,160.19333)"
     inkscape:label="logo_arc"
     inkscape:groupmode="layer"
     id="g18"><g
       transform="translate(8.504,6.685)"
       id="g20"><g
         id="g22"><g
           id="g24"><g
             id="g26"><g
               id="g28"><path
                 inkscape:connector-curvature="0"
                 id="path30"
                 style="fill:#4180ff;fill-opacity:1;fill-rule:nonzero;stroke:none"
                 d="m -2.83484,0 h -5.66928 l 32.10555,113.46205 2.82446,-9.9821 -28.40129,-100.37" /></g><g
               id="g32"><path
                 inkscape:connector-curvature="0"
                 id="path34"
                 style="fill:#919191;fill-opacity:1;fill-rule:nonzero;stroke:none"
                 d="m 50.03209,0 h 5.66928 L 27.14565,100.91542 24.32118,90.93332 49.01779,3.65494" /></g><g
               id="g36"><path
                 inkscape:connector-curvature="0"
                 id="path38"
                 style="fill:#919191;fill-opacity:1;fill-rule:nonzero;stroke:none"
                 d="m 13.18158,47.33911 c 6.87788,-1.43646 13.98778,-1.43646 20.86566,0 l -0.77167,2.72759 v 0 c -6.33839,-1.289 -12.87533,-1.289 -19.21371,0 L 13.2906,47.33911" /></g><g
               id="g40"><path
                 inkscape:connector-curvature="0"
                 id="path42"
                 style="fill:#4180ff;fill-opacity:1;fill-rule:nonzero;stroke:none"
                 d="m 70.867,45.35506 c 18.78681,0 34.01609,15.22928 34.01609,34.01608 0,18.78679 -15.22928,34.01608 -34.01609,34.01608 v -5.66928 0 c 15.65572,0 28.34682,-12.6911 28.34682,-28.3468 0,-15.65572 -12.6911,-28.34682 -28.34682,-28.34682 L 70.867,0 h 5.66929 v 45.8369" /></g><g
               id="g44"><path
                 inkscape:connector-curvature="0"
                 id="path46"
                 style="fill:#919191;fill-opacity:1;fill-rule:nonzero;stroke:none"
                 d="M 114.94609,-6.43486 C 101.14766,8.10631 92.47842,26.78313 90.2796,46.70718 h -2.9e-4 c 0.87775,0.44702 1.73863,0.93288 2.57816,1.44905 l 2.1e-4,3.9e-4 C 94.85689,27.38615 104.10196,7.96568 118.95895,-6.68486 l -3.68498,2e-5" /></g><g
               id="g48"><path
                 inkscape:connector-curvature="0"
                 id="path50"
                 style="fill:#919191;fill-opacity:1;fill-rule:nonzero;stroke:none"
                 d="m 181.4194,102.04868 c -25.04922,0 -45.35505,-20.30584 -45.35505,-45.35506 0,-15.0766 7.49435,-29.17116 19.99301,-37.60117 l -1.58463,-2.34976 v 0 c -22.06453,14.88199 -27.886,44.83351 -13.00401,66.89804 8.95683,13.27976 23.93224,21.24247 39.95103,21.24247 l -3.3e-4,-2.83494" /></g><g
               id="g52"><path
                 inkscape:connector-curvature="0"
                 id="path54"
                 style="fill:#4180ff;fill-opacity:1;fill-rule:nonzero;stroke:none"
                 d="m 181.4194,5.66927 c -28.18033,0 -51.02433,22.84401 -51.02433,51.02433 0,16.96114 8.43113,32.81748 22.49211,42.30123 l -3.16978,4.69961 v 0 C 123.75908,86.18617 116.91028,50.94904 134.41855,24.99072 144.95602,9.36745 162.57416,-4.4e-4 181.41985,-4.4e-4 v 5.66925" /></g></g></g></g></g></g></svg>
